<?xml version="1.0" encoding="UTF-8" standalone="no"?>
<svg
   xmlns:dc="http://purl.org/dc/elements/1.1/"
   xmlns:cc="http://creativecommons.org/ns#"
   xmlns:rdf="http://www.w3.org/1999/02/22-rdf-syntax-ns#"
   xmlns:svg="http://www.w3.org/2000/svg"
   xmlns="http://www.w3.org/2000/svg"
   xml:space="preserve"
   enable-background="new 0 0 4096 4096"
   viewBox="0 0 4096 4096"
   height="4096px"
   width="4096px"
   y="0px"
   x="0px"
   id="Layer_1"
   version="1.1"><metadata
   id="metadata8"><rdf:RDF><cc:Work
       rdf:about=""><dc:format>image/svg+xml</dc:format><dc:type
         rdf:resource="http://purl.org/dc/dcmitype/StillImage" /><dc:title></dc:title></cc:Work></rdf:RDF></metadata><defs
   id="defs6" />
<path
   d="  M2047.997,3173.404c-11.485,0.029-17.954,2.9-26.046,6.197c-112.096-36.705-177.65-67.984-210.609-95.459  c-114.768,64.355-133.993,66.639-255.786,115.141c-102.794,39.086-151.015,52.121-189.457,60.477  c-49.524,13.279-97.739,17.377-145.831,20.619c-42.811,3.008-63.621,0.607-90.666-1.486c-47.924-4.221-88.411-13.324-124.797-20.949  c-140.959-28.307-196.851-56.137-233.061-83.484c170.86-60.883,287.707-112.865,370.246-159.186  c-155.229-38.076-253.01-87.357-346.844-135.287c-211.271-101.51-234.283-123.189-277.747-158.195  c-22.13-18.443-31.303-27.299-41.223-45.348c-14.864-25.584-7.323-38.225,4.122-50.496c14.425-13.4,26.049-15.205,40.194-14.428  c17.193,1.516,36.958,3.75,57.712,5.148c105.701,7.729,205.539,19.764,300.934,35.047  c-183.355-93.514-264.761-142.725-299.904-173.143c-94.27-76.72-174.948-148.136-242.189-221.578  c-114.959-119.657-170.702-194.032-216.427-260.74c-54.314-77.464-71.969-125.356-84.509-172.111  c-5.749-21.67-3.104-33.897,2.063-43.286c14.574-22.338,50.976-18.479,58.744-13.396c44.898,27.725,81.335,51.544,117.489,75.233  c61.16,40.215,122.199,80.191,179.322,112.335c55.029,30.571,139.955,72.667,268.988,127.792  c47.188,20.194,88.344,37.446,110.275,45.348c-6.464-47.694-13.176-78.314-13.399-86.572c-1.735-32.63,4.466-39.351,9.276-44.313  c4.222-3.346,14.596-4.596,24.734,4.125c20.275,17.96,41.132,34.965,62.863,50.494c107.197,75.441,339.146,187.74,436.311,229.763  c153.76,64.958,314.479,124.215,477.835,178.359c-29.169-72.075-31.624-70.183-39.163-75.235l300.863-1536.666  c3.225-18.433,5.908-33.965,15.687-33.919c9.777-0.045,12.46,15.486,15.686,33.919l300.871,1536.666  c-7.535,5.053-10,3.16-39.163,75.235c163.361-54.145,324.073-113.401,477.834-178.359  c97.164-42.022,329.114-154.327,436.307-229.763c21.74-15.539,42.589-32.54,62.871-50.503c10.131-8.721,20.508-7.468,24.729-4.118  c4.812,4.961,11.015,11.684,9.28,44.313c-0.23,8.258-6.939,38.875-13.402,86.569c21.928-7.901,63.09-25.153,110.277-45.348  c129.032-55.122,213.949-97.221,268.979-127.792c57.129-32.146,118.172-72.12,179.333-112.336  c36.149-23.689,72.588-47.508,117.487-75.234c7.766-5.081,44.168-8.943,58.744,13.397c5.165,9.388,7.813,21.612,2.058,43.286  c-12.541,46.754-30.194,94.645-84.511,172.106c-45.719,66.714-101.461,141.083-216.42,260.746  c-67.24,73.442-147.918,144.858-242.191,221.578c-35.142,30.418-116.551,79.623-299.904,173.143  c95.4-15.283,195.234-27.318,300.936-35.047c20.755-1.398,40.52-3.633,57.719-5.148c14.145-0.777,25.76,1.027,40.188,14.428  c11.445,12.277,18.992,24.906,4.121,50.502c-9.916,18.043-19.092,26.898-41.22,45.348c-43.467,35-66.474,56.686-277.746,158.195  c-93.832,47.93-191.62,97.205-346.845,135.275c82.535,46.332,199.387,98.309,370.246,159.191  c-36.208,27.348-92.098,55.184-233.064,83.484c-36.385,7.625-76.869,16.729-124.793,20.955c-27.046,2.094-47.848,4.482-90.666,1.486  c-48.09-3.242-96.309-7.34-145.824-20.619c-38.443-8.355-86.668-21.391-189.457-60.482  c-121.798-48.496-141.025-50.779-255.795-115.148c-32.953,27.488-98.514,58.768-210.606,95.473  c-8.089-3.297-14.563-6.168-26.048-6.197H2047.997z"
   fill="#FFFFFF"
   id="path3723" />
</svg>