<?xml version="1.0" encoding="utf-8"?>
<!-- Generator: Adobe Illustrator 16.0.0, SVG Export Plug-In . SVG Version: 6.00 Build 0)  -->
<!DOCTYPE svg PUBLIC "-//W3C//DTD SVG 1.1//EN" "http://www.w3.org/Graphics/SVG/1.1/DTD/svg11.dtd">
<svg version="1.1" id="Layer_1" xmlns="http://www.w3.org/2000/svg" xmlns:xlink="http://www.w3.org/1999/xlink" x="0px" y="0px"
	 width="4096px" height="4096px" viewBox="0 0 4096 4096" enable-background="new 0 0 4096 4096" xml:space="preserve">
<path id="path3723" inkscape:original-d="m 683.42135,993.10686 c -3.17292,0.007 -4.95933,0.79976 -7.19497,1.71069 -30.95692,-10.1368 -49.06094,-18.77541 -58.16352,-26.36478 -31.69604,17.77429 -37.00529,18.40601 -70.64151,31.79873 -28.38773,10.7967 -41.70548,14.3959 -52.32211,16.7049 -13.67727,3.6659 -26.99257,4.7979 -40.27395,5.6925 -11.82356,0.8298 -17.57021,0.1688 -25.03915,-0.41 -13.23536,-1.1665 -24.41654,-3.6804 -34.46541,-5.7861 -38.92924,-7.8172 -54.36471,-15.5031 -64.36478,-23.05663 47.18655,-16.81387 79.45612,-31.1689 102.25157,-43.96226 -42.86923,-10.51534 -69.87444,-24.12409 -95.78864,-37.36052 -58.34719,-28.03513 -64.70191,-34.02157 -76.70551,-43.68942 -6.11181,-5.09535 -8.64488,-7.54004 -11.38487,-12.52335 -4.10481,-7.06785 -2.02231,-10.55654 1.13849,-13.94645 3.98384,-3.70064 7.19414,-4.19887 11.10024,-3.98471 4.74875,0.41795 10.20705,1.03494 15.93881,1.42311 29.19125,2.13445 56.76322,5.45637 83.1095,9.67713 -50.63769,-25.82643 -73.11989,-39.41663 -82.82488,-47.81642 -26.035,-21.18837 -48.31563,-40.91095 -66.88607,-61.19364 -31.74853,-33.04575 -47.14281,-53.58531 -59.77053,-72.00926 -15.00048,-21.39265 -19.87603,-34.61963 -23.33897,-47.53181 -1.58819,-5.98488 -0.85769,-9.36123 0.56924,-11.9541 4.02487,-6.16937 14.07798,-5.10343 16.22343,-3.70008 12.39954,7.65683 22.46236,14.23517 32.44686,20.77737 16.89054,11.10623 33.74797,22.14623 49.52416,31.02376 15.19721,8.44284 38.6514,20.0692 74.28623,35.29307 13.03179,5.57567 24.39799,10.34105 30.45451,12.52335 -1.78511,-13.17164 -3.63808,-21.62813 -3.70008,-23.90821 -0.47916,-9.01177 1.23381,-10.86862 2.56159,-12.23873 1.16571,-0.9244 4.03168,-1.27001 6.83092,1.13849 5.6003,4.9605 11.35952,9.65613 17.36192,13.94645 29.6042,20.83341 93.66146,51.8474 120.49556,63.45335 42.46379,17.93836 86.85023,34.3036 131.96378,49.2568 -8.05473,-19.90358 -8.73267,-19.38164 -10.81562,-20.77738 l 83.08997,-424.38249 c 0.8911,-5.09402 1.63314,-9.38594 4.33754,-9.36759" inkscape:path-effect="#path-effect3727" sodipodi:nodetypes="cccccccccccccccccccccccccccccccccccc" inkscape:connector-curvature="0" fill="#FFFFFF" d="
	M2047.997,3173.404c-11.485,0.029-17.954,2.9-26.046,6.197c-112.096-36.705-177.65-67.984-210.609-95.459
	c-114.768,64.355-133.993,66.639-255.786,115.141c-102.794,39.086-151.015,52.121-189.457,60.477
	c-49.524,13.279-97.739,17.377-145.831,20.619c-42.811,3.008-63.621,0.607-90.666-1.486c-47.924-4.221-88.411-13.324-124.797-20.949
	c-140.959-28.307-196.851-56.137-233.061-83.484c170.86-60.883,287.707-112.865,370.246-159.186
	c-155.229-38.076-253.01-87.357-346.844-135.287c-211.271-101.51-234.283-123.189-277.747-158.195
	c-22.13-18.443-31.303-27.299-41.223-45.348c-14.864-25.584-7.323-38.225,4.122-50.496c14.425-13.4,26.049-15.205,40.194-14.428
	c17.193,1.516,36.958,3.75,57.712,5.148c105.701,7.729,205.539,19.764,300.934,35.047
	c-183.355-93.514-264.761-142.725-299.904-173.143c-94.27-76.72-174.948-148.136-242.189-221.578
	c-114.959-119.657-170.702-194.032-216.427-260.74c-54.314-77.464-71.969-125.356-84.509-172.111
	c-5.749-21.67-3.104-33.897,2.063-43.286c14.574-22.338,50.976-18.479,58.744-13.396c44.898,27.725,81.335,51.544,117.489,75.233
	c61.16,40.215,122.199,80.191,179.322,112.335c55.029,30.571,139.955,72.667,268.988,127.792
	c47.188,20.194,88.344,37.446,110.275,45.348c-6.464-47.694-13.176-78.314-13.399-86.572c-1.735-32.63,4.466-39.351,9.276-44.313
	c4.222-3.346,14.596-4.596,24.734,4.125c20.275,17.96,41.132,34.965,62.863,50.494c107.197,75.441,339.146,187.74,436.311,229.763
	c153.76,64.958,314.479,124.215,477.835,178.359c-29.169-72.075-31.624-70.183-39.163-75.235l300.863-1536.666
	c3.225-18.433,5.908-33.965,15.687-33.919c9.777-0.045,12.46,15.486,15.686,33.919l300.871,1536.666
	c-7.535,5.053-10,3.16-39.163,75.235c163.361-54.145,324.073-113.401,477.834-178.359
	c97.164-42.022,329.114-154.327,436.307-229.763c21.74-15.539,42.589-32.54,62.871-50.503c10.131-8.721,20.508-7.468,24.729-4.118
	c4.812,4.961,11.015,11.684,9.28,44.313c-0.23,8.258-6.939,38.875-13.402,86.569c21.928-7.901,63.09-25.153,110.277-45.348
	c129.032-55.122,213.949-97.221,268.979-127.792c57.129-32.146,118.172-72.12,179.333-112.336
	c36.149-23.689,72.588-47.508,117.487-75.234c7.766-5.081,44.168-8.943,58.744,13.397c5.165,9.388,7.813,21.612,2.058,43.286
	c-12.541,46.754-30.194,94.645-84.511,172.106c-45.719,66.714-101.461,141.083-216.42,260.746
	c-67.24,73.442-147.918,144.858-242.191,221.578c-35.142,30.418-116.551,79.623-299.904,173.143
	c95.4-15.283,195.234-27.318,300.936-35.047c20.755-1.398,40.52-3.633,57.719-5.148c14.145-0.777,25.76,1.027,40.188,14.428
	c11.445,12.277,18.992,24.906,4.121,50.502c-9.916,18.043-19.092,26.898-41.22,45.348c-43.467,35-66.474,56.686-277.746,158.195
	c-93.832,47.93-191.62,97.205-346.845,135.275c82.535,46.332,199.387,98.309,370.246,159.191
	c-36.208,27.348-92.098,55.184-233.064,83.484c-36.385,7.625-76.869,16.729-124.793,20.955c-27.046,2.094-47.848,4.482-90.666,1.486
	c-48.09-3.242-96.309-7.34-145.824-20.619c-38.443-8.355-86.668-21.391-189.457-60.482
	c-121.798-48.496-141.025-50.779-255.795-115.148c-32.953,27.488-98.514,58.768-210.606,95.473
	c-8.089-3.297-14.563-6.168-26.048-6.197H2047.997z"/>
</svg>
